<?xml version="1.0" encoding="utf-8"?>
<!-- Generator: Adobe Illustrator 15.0.0, SVG Export Plug-In . SVG Version: 6.00 Build 0)  -->
<!DOCTYPE svg PUBLIC "-//W3C//DTD SVG 1.1//EN" "http://www.w3.org/Graphics/SVG/1.1/DTD/svg11.dtd">
<svg version="1.1" id="_x32_" xmlns="http://www.w3.org/2000/svg" xmlns:xlink="http://www.w3.org/1999/xlink" x="0px" y="0px"
	 width="50px" height="50px" viewBox="375 375 50 50" enable-background="new 375 375 50 50" xml:space="preserve">
<g>
	<path fill="#FF4200" d="M392.691,397.006l6.331,4.884l0.088,0.05l0.04,0.022c0.547,0.305,1.272,0.144,1.756-0.389l0.042-0.04
		l7.759-9.18c0.442-0.495,0.449-1.208,0.02-1.59c-0.431-0.383-1.138-0.291-1.577,0.204l-7.253,7.748l-5.6-3.899
		c-0.523-0.386-1.309-0.207-1.753,0.399C392.101,395.819,392.166,396.622,392.691,397.006z"/>
	<path fill="#FF4200" d="M384.809,399.999c0-0.335,0.007-0.67,0.043-1h-3.974c-0.024,0.329-0.031,0.664-0.031,1
		c0,0.342,0.006,0.672,0.031,1.001h3.974C384.816,400.671,384.809,400.336,384.809,399.999z"/>
	<path fill="#FF4200" d="M391.838,387.187c0.375-0.238,0.759-0.462,1.148-0.662l0.152-0.073l-1.981-3.439
		c-0.495,0.25-0.978,0.527-1.446,0.831l1.981,3.441L391.838,387.187z"/>
	<path fill="#FF4200" d="M383.015,391.156l3.44,1.98l0.833-1.445l-3.442-1.981C383.542,390.179,383.265,390.66,383.015,391.156z"/>
	<path fill="#FF4200" d="M413.476,407.014c-0.207,0.39-0.424,0.772-0.669,1.143l-0.099,0.145l3.441,1.981
		c0.305-0.469,0.582-0.943,0.838-1.438l-3.433-1.988L413.476,407.014z"/>
	<path fill="#FF4200" d="M386.527,407.007l-0.08-0.15l-3.433,1.98c0.244,0.495,0.527,0.978,0.831,1.445l3.442-1.981l-0.1-0.145
		C386.95,407.786,386.726,407.403,386.527,407.007z"/>
	<path fill="#FF4200" d="M391.838,412.806l-0.146-0.1l-1.981,3.442c0.468,0.304,0.951,0.588,1.446,0.839l1.981-3.441l-0.152-0.073
		C392.597,413.274,392.213,413.05,391.838,412.806z"/>
	<path fill="#FF4200" d="M406.857,386.447l1.446,0.838l1.98-3.441c-0.468-0.304-0.944-0.582-1.438-0.831L406.857,386.447z"/>
	<path fill="#FF4200" d="M399.001,415.148v3.97c0.33,0.029,0.664,0.036,0.999,0.036c0.336,0,0.671-0.007,1-0.036v-3.97v-0.041
		h-1.999V415.148L399.001,415.148z"/>
	<path fill="#FF4200" d="M401,384.851v-3.969c-0.329-0.029-0.664-0.036-1-0.036c-0.335,0-0.669,0.006-0.999,0.036v3.969v0.042H401
		V384.851z"/>
	<path fill="#FF4200" d="M406.857,413.553l1.988,3.435c0.494-0.259,0.971-0.535,1.438-0.839l-1.98-3.442L406.857,413.553z"/>
	<path fill="#FF4200" d="M416.987,391.156c-0.251-0.496-0.533-0.978-0.838-1.446l-3.441,1.981l0.84,1.445L416.987,391.156z"/>
	<path fill="#FF4200" d="M419.124,399h-3.974h-0.041v2h0.041h3.974c0.024-0.329,0.03-0.664,0.03-1.001
		C419.154,399.664,419.148,399.329,419.124,399z"/>
	<path fill="#FF4200" d="M400,375c-13.808,0.001-24.999,11.192-25,25c0.001,13.808,11.192,25,25,25c13.809,0,24.999-11.192,25-25
		C424.999,386.192,413.809,375,400,375z M400,421.774c-6.019-0.001-11.452-2.435-15.397-6.378
		c-3.943-3.945-6.376-9.379-6.377-15.396c0-6.018,2.434-11.452,6.377-15.396c3.945-3.944,9.378-6.377,15.397-6.378
		c6.018,0.001,11.451,2.434,15.396,6.378c3.943,3.944,6.377,9.377,6.378,15.396c-0.001,6.018-2.435,11.451-6.378,15.396
		C411.451,419.34,406.018,421.773,400,421.774z"/>
</g>
</svg>
