<?xml version="1.0" encoding="utf-8"?>
<!-- Generator: Adobe Illustrator 15.0.0, SVG Export Plug-In . SVG Version: 6.00 Build 0)  -->
<!DOCTYPE svg PUBLIC "-//W3C//DTD SVG 1.1//EN" "http://www.w3.org/Graphics/SVG/1.1/DTD/svg11.dtd">
<svg version="1.1" id="Layer_1" xmlns="http://www.w3.org/2000/svg" xmlns:xlink="http://www.w3.org/1999/xlink" x="0px" y="0px"
	 width="50px" height="39.017px" viewBox="375 380.491 50 39.017" enable-background="new 375 380.491 50 39.017"
	 xml:space="preserve">
<path fill="#FF4200" d="M382.111,419.508h36.458c4.077,0,6.432-2.354,6.432-7.02v-25c0-4.642-2.378-6.997-7.11-6.997h-36.458
	c-4.054,0-6.432,2.333-6.432,6.997v25C375,417.176,377.4,419.508,382.111,419.508z M397.238,401.172l-17.524-17.292
	c0.511-0.208,1.114-0.325,1.834-0.325h36.928c0.72,0,1.347,0.116,1.88,0.372l-17.501,17.245c-0.998,0.998-1.88,1.438-2.808,1.438
	S398.236,402.17,397.238,401.172z M377.927,412.8v-25.624c0-0.162,0-0.093,0-0.232l13.346,13.091l-13.323,13.16
	C377.927,413.078,377.927,412.939,377.927,412.8z M422.073,387.199v25.624c0,0.093,0,0.209,0,0.303l-13.253-13.091l13.253-13.021
	C422.073,387.199,422.073,387.199,422.073,387.199z M381.548,416.444c-0.673,0-1.23-0.093-1.718-0.302l13.88-13.717l1.509,1.485
	c1.625,1.602,3.18,2.274,4.828,2.274c1.625,0,3.204-0.673,4.829-2.274l1.508-1.485l13.857,13.693
	c-0.488,0.232-1.091,0.325-1.765,0.325H381.548z"/>
</svg>
