<?xml version="1.0" encoding="utf-8"?>
<!-- Generator: Adobe Illustrator 15.0.0, SVG Export Plug-In . SVG Version: 6.00 Build 0)  -->
<!DOCTYPE svg PUBLIC "-//W3C//DTD SVG 1.1//EN" "http://www.w3.org/Graphics/SVG/1.1/DTD/svg11.dtd">
<svg version="1.1" id="Layer_1" xmlns="http://www.w3.org/2000/svg" xmlns:xlink="http://www.w3.org/1999/xlink" x="0px" y="0px"
	 width="50px" height="66.577px" viewBox="375 366.38 50 66.577" enable-background="new 375 366.38 50 66.577"
	 xml:space="preserve">
<path fill="#FF4200" d="M400.237,366.38c-13.665,0-25.237,11.64-25.237,25.425c0,14.438,13.415,29.203,22.438,39.58
	c0.035,0.041,1.494,1.66,3.289,1.66h0.159c1.798,0,3.245-1.619,3.281-1.66c8.466-9.733,20.833-25.786,20.833-39.58
	C425,378.018,415.973,366.38,400.237,366.38L400.237,366.38z M401.073,428.589c-0.073,0.072-0.18,0.154-0.273,0.223
	c-0.096-0.066-0.2-0.15-0.276-0.223l-1.09-1.254c-8.555-9.813-20.269-23.253-20.269-35.532c0-11.525,9.65-21.26,21.071-21.26
	c14.228,0,20.596,10.677,20.596,21.26c0,9.321-6.649,21.7-19.761,36.786H401.073z M400.073,378.995c-6.902,0-12.5,5.596-12.5,12.5
	c0,6.904,5.598,12.5,12.5,12.5s12.5-5.598,12.5-12.5C412.573,384.593,406.977,378.995,400.073,378.995z M400.073,399.828
	c-4.596,0-8.429-3.829-8.429-8.425s3.738-8.333,8.333-8.333c4.598,0,8.333,3.738,8.333,8.333
	C408.313,395.999,404.671,399.828,400.073,399.828z"/>
</svg>
