<?xml version="1.0" encoding="utf-8"?>
<!-- Generator: Adobe Illustrator 15.0.0, SVG Export Plug-In . SVG Version: 6.00 Build 0)  -->
<!DOCTYPE svg PUBLIC "-//W3C//DTD SVG 1.1//EN" "http://www.w3.org/Graphics/SVG/1.1/DTD/svg11.dtd">
<svg version="1.1" id="Capa_1" xmlns="http://www.w3.org/2000/svg" xmlns:xlink="http://www.w3.org/1999/xlink" x="0px" y="0px"
	 width="48.816px" height="50.072px" viewBox="375 374.964 48.816 50.072" enable-background="new 375 374.964 48.816 50.072"
	 xml:space="preserve">
<g>
	<g>
		<path fill="#FF4200" d="M414.537,405.982c-1.025-1.067-2.262-1.639-3.572-1.639c-1.3,0-2.547,0.561-3.614,1.628l-3.34,3.329
			c-0.274-0.148-0.549-0.286-0.813-0.423c-0.38-0.19-0.739-0.37-1.046-0.561c-3.128-1.986-5.971-4.576-8.698-7.926
			c-1.321-1.67-2.209-3.076-2.854-4.502c0.867-0.792,1.67-1.617,2.452-2.409c0.296-0.296,0.592-0.603,0.888-0.898
			c2.22-2.219,2.22-5.094,0-7.313l-2.885-2.885c-0.328-0.328-0.666-0.666-0.983-1.004c-0.634-0.655-1.3-1.332-1.987-1.966
			c-1.025-1.015-2.251-1.554-3.541-1.554c-1.289,0-2.536,0.539-3.593,1.554c-0.01,0.01-0.01,0.01-0.021,0.021l-3.593,3.625
			c-1.353,1.353-2.124,3.001-2.293,4.914c-0.254,3.086,0.655,5.96,1.353,7.842c1.712,4.618,4.27,8.898,8.084,13.485
			c4.629,5.526,10.199,9.892,16.561,12.967c2.431,1.152,5.675,2.516,9.3,2.748c0.222,0.01,0.454,0.021,0.666,0.021
			c2.44,0,4.491-0.877,6.098-2.62c0.011-0.021,0.031-0.032,0.042-0.054c0.55-0.665,1.184-1.268,1.85-1.912
			c0.454-0.434,0.919-0.888,1.374-1.363c1.046-1.089,1.596-2.357,1.596-3.657c0-1.311-0.561-2.567-1.628-3.625L414.537,405.982z
			 M418.32,417.11C418.31,417.11,418.31,417.121,418.32,417.11c-0.412,0.443-0.835,0.846-1.289,1.289
			c-0.687,0.655-1.385,1.343-2.04,2.114c-1.067,1.141-2.324,1.68-3.974,1.68c-0.158,0-0.327,0-0.485-0.011
			c-3.14-0.2-6.056-1.427-8.243-2.473c-5.982-2.896-11.234-7.007-15.599-12.217c-3.604-4.344-6.013-8.359-7.609-12.671
			c-0.982-2.631-1.342-4.682-1.184-6.616c0.106-1.236,0.582-2.261,1.458-3.139l3.604-3.604c0.518-0.486,1.067-0.75,1.606-0.75
			c0.666,0,1.205,0.402,1.543,0.74c0.011,0.011,0.021,0.021,0.032,0.032c0.645,0.603,1.258,1.226,1.902,1.892
			c0.328,0.338,0.666,0.676,1.004,1.025l2.885,2.885c1.12,1.121,1.12,2.156,0,3.276c-0.307,0.307-0.603,0.613-0.909,0.909
			c-0.888,0.909-1.733,1.754-2.653,2.579c-0.021,0.021-0.042,0.032-0.053,0.053c-0.909,0.909-0.74,1.796-0.549,2.399
			c0.01,0.032,0.021,0.063,0.031,0.095c0.75,1.817,1.807,3.529,3.414,5.569l0.011,0.011c2.917,3.593,5.992,6.394,9.385,8.539
			c0.434,0.274,0.877,0.496,1.3,0.708c0.381,0.19,0.739,0.37,1.046,0.56c0.043,0.021,0.085,0.053,0.127,0.074
			c0.359,0.18,0.697,0.265,1.046,0.265c0.878,0,1.427-0.55,1.606-0.729l3.614-3.614c0.359-0.359,0.931-0.793,1.597-0.793
			c0.655,0,1.193,0.412,1.521,0.771c0.011,0.011,0.011,0.011,0.021,0.021l5.822,5.823C419.398,414.881,419.398,415.99,418.32,417.11
			z"/>
		<path fill="#FF4200" d="M402.024,386.875c2.769,0.465,5.284,1.776,7.292,3.784s3.308,4.523,3.783,7.292
			c0.116,0.697,0.719,1.184,1.406,1.184c0.084,0,0.158-0.011,0.242-0.021c0.782-0.127,1.301-0.867,1.174-1.649
			c-0.571-3.35-2.156-6.404-4.576-8.824c-2.42-2.42-5.475-4.005-8.824-4.576c-0.782-0.127-1.512,0.391-1.649,1.163
			C400.735,385.998,401.242,386.748,402.024,386.875z"/>
		<path fill="#FF4200" d="M424.979,397.052c-0.94-5.517-3.54-10.537-7.535-14.531s-9.015-6.595-14.531-7.535
			c-0.771-0.137-1.501,0.391-1.638,1.163c-0.127,0.782,0.391,1.511,1.173,1.648c4.925,0.835,9.416,3.171,12.988,6.732
			c3.572,3.572,5.896,8.064,6.731,12.988c0.116,0.698,0.719,1.184,1.406,1.184c0.084,0,0.158-0.011,0.243-0.021
			C424.588,398.563,425.116,397.823,424.979,397.052z"/>
	</g>
</g>
</svg>
